<?xml version="1.0" standalone="no"?>
<!DOCTYPE svg PUBLIC "-//W3C//DTD SVG 20010904//EN"
 "http://www.w3.org/TR/2001/REC-SVG-20010904/DTD/svg10.dtd">
<svg version="1.0" xmlns="http://www.w3.org/2000/svg"
 width="200.000000pt" height="200.000000pt" viewBox="0 0 200.000000 200.000000"
 preserveAspectRatio="xMidYMid meet">
<metadata>
Created by potrace 1.11, written by Peter Selinger 2001-2013
</metadata>
<g transform="translate(0.000000,200.000000) scale(0.100000,-0.100000)"
fill="#000000" stroke="none">
<path d="M1272 1832 c-3 -8 27 -80 66 -159 40 -79 72 -148 72 -153 0 -20 -25
-9 -63 28 l-39 37 16 -33 c15 -29 15 -33 1 -38 -9 -4 -25 2 -35 11 -18 16 -20
16 -20 2 0 -14 -5 -14 -54 3 -37 12 -81 18 -147 18 -89 -1 -98 -3 -169 -38
-59 -31 -96 -60 -176 -142 -139 -142 -217 -242 -263 -336 l-38 -80 -1 -159 0
-158 34 -57 c37 -62 40 -69 22 -65 -8 1 -14 -12 -16 -35 -3 -30 -7 -38 -23
-38 -11 0 -19 -7 -19 -17 0 -9 -7 -25 -17 -35 -15 -17 -15 -19 0 -36 10 -10
17 -26 17 -35 0 -19 -1 -19 61 -21 29 0 54 -8 66 -19 25 -22 68 -23 59 -2 -5
15 9 20 47 17 11 -1 21 6 24 18 3 11 6 20 7 20 1 0 42 -16 92 -36 147 -60 213
-74 361 -74 177 0 301 24 375 74 l53 36 1 75 1 74 -55 37 -55 36 -206 0 c-270
0 -326 13 -404 92 -28 30 -70 63 -92 74 -53 26 -73 73 -74 169 -1 60 3 80 26
120 49 90 87 138 177 229 l91 91 93 1 92 0 0 -37 c0 -58 34 -145 73 -185 33
-34 39 -36 97 -36 101 0 189 26 235 71 l40 38 -1 90 c-1 126 -18 161 -90 186
-30 10 -54 20 -54 22 0 12 41 81 54 92 19 16 20 39 5 95 -6 22 -15 57 -19 76
-5 20 -25 51 -45 70 -33 32 -39 34 -106 35 -54 1 -72 -2 -77 -13z m171 -75
c13 -29 29 -71 36 -93 13 -39 12 -45 -14 -93 -16 -28 -32 -51 -37 -51 -4 0 -8
23 -8 50 0 53 -17 96 -55 141 -14 18 -21 38 -19 60 1 19 3 34 3 35 1 0 17 1
36 2 33 1 36 -2 58 -51z m73 -344 c7 -10 14 -24 14 -32 0 -11 -4 -11 -18 2
-10 10 -27 17 -37 17 -14 0 -15 3 -5 15 16 20 30 19 46 -2z m-58 -54 c1 -30 0
-30 -19 -13 -14 13 -16 20 -8 31 18 21 26 16 27 -18z m-123 -19 c3 -6 0 -10
-8 -10 -21 0 -57 -35 -57 -56 0 -17 -1 -17 -20 2 -22 22 -18 54 6 54 8 0 14 6
14 14 0 27 47 24 65 -4z m195 -85 c0 -25 -4 -35 -15 -35 -9 0 -34 -9 -56 -21
-25 -12 -54 -19 -77 -17 -33 3 -37 6 -38 36 -2 32 5 37 48 33 9 -1 34 7 55 18
21 11 48 20 61 21 19 0 22 -5 22 -35z"/>
<path d="M755 1695 c1 -114 -10 -110 266 -110 193 0 231 -2 239 -15 7 -10 10
-11 10 -2 0 6 -10 22 -22 34 -16 16 -48 26 -131 39 -116 19 -207 45 -207 59 0
24 35 31 144 31 l115 -1 52 -37 51 -36 -20 40 c-31 60 -88 73 -318 73 l-180 0
1 -75z"/>
</g>
</svg>
