<svg preserveAspectRatio="xMinYMin meet" xmlns="http://www.w3.org/2000/svg"><g><path d="M-38,-26L-91,129L-17,177Z" fill="#fffdfe" stroke="#fffdfe"/><path d="M-38,-26L-17,177L129,95Z" fill="#fefafd" stroke="#fefafd"/><path d="M-38,-26L129,95L75,-42Z" fill="#fcf9fc" stroke="#fcf9fc"/><path d="M-38,-26L75,-42L255,-82Z" fill="#faf7fb" stroke="#faf7fb"/><path d="M-38,-26L255,-82L362,-107Z" fill="#f5f3f8" stroke="#f5f3f8"/><path d="M75,-42L129,95L255,-82Z" fill="#f7f5fa" stroke="#f7f5fa"/><path d="M255,-82L129,95L256,112Z" fill="#f4f2f8" stroke="#f4f2f8"/><path d="M255,-82L256,112L362,-107Z" fill="#eeedf5" stroke="#eeedf5"/><path d="M362,-107L256,112L433,100Z" fill="#e9e9f3" stroke="#e9e9f3"/><path d="M362,-107L433,100L479,50Z" fill="#e2e5f1" stroke="#e2e5f1"/><path d="M362,-107L479,50L509,-63Z" fill="#dfe4f0" stroke="#dfe4f0"/><path d="M362,-107L509,-63L809,-117Z" fill="#d2deed" stroke="#d2deed"/><path d="M509,-63L479,50L669,-29Z" fill="#d3deed" stroke="#d3deed"/><path d="M509,-63L669,-29L809,-117Z" fill="#c4d8ea" stroke="#c4d8ea"/><path d="M669,-29L479,50L671,63Z" fill="#ccdbec" stroke="#ccdbec"/><path d="M669,-29L671,63L884,42Z" fill="#bad4e7" stroke="#bad4e7"/><path d="M669,-29L884,42L809,-117Z" fill="#b2d1e5" stroke="#b2d1e5"/><path d="M809,-117L884,42L936,-47Z" fill="#a3cbe2" stroke="#a3cbe2"/><path d="M809,-117L936,-47L1242,-60Z" fill="#91c2dd" stroke="#91c2dd"/><path d="M809,-117L1242,-60L1397,-72Z" fill="#82b5d4" stroke="#82b5d4"/><path d="M809,-117L1397,-72L1926,-72Z" fill="#81a5ba" stroke="#81a5ba"/><path d="M936,-47L884,42L941,45Z" fill="#9cc8e0" stroke="#9cc8e0"/><path d="M936,-47L941,45L1175,-33Z" fill="#8fc0dc" stroke="#8fc0dc"/><path d="M936,-47L1175,-33L1242,-60Z" fill="#82b7d7" stroke="#82b7d7"/><path d="M1175,-33L941,45L1139,101Z" fill="#86bad9" stroke="#86bad9"/><path d="M1175,-33L1139,101L1267,89Z" fill="#82b3d0" stroke="#82b3d0"/><path d="M1175,-33L1267,89L1242,-60Z" fill="#82b1cd" stroke="#82b1cd"/><path d="M1242,-60L1267,89L1397,-72Z" fill="#82acc5" stroke="#82acc5"/><path d="M1397,-72L1267,89L1433,40Z" fill="#81a6bc" stroke="#81a6bc"/><path d="M1397,-72L1433,40L1603,-64Z" fill="#819cac" stroke="#819cac"/><path d="M1397,-72L1603,-64L1926,-72Z" fill="#808d95" stroke="#808d95"/><path d="M1603,-64L1433,40L1516,65Z" fill="#8198a6" stroke="#8198a6"/><path d="M1603,-64L1516,65L1717,100Z" fill="#809099" stroke="#809099"/><path d="M1603,-64L1717,100L1742,-39Z" fill="#80898e" stroke="#80898e"/><path d="M1603,-64L1742,-39L1926,-72Z" fill="#808284" stroke="#808284"/><path d="M1742,-39L1717,100L1890,25Z" fill="#808080" stroke="#808080"/><path d="M1742,-39L1890,25L1926,-72Z" fill="#808080" stroke="#808080"/><path d="M1926,-72L1890,25L1898,244Z" fill="#808080" stroke="#808080"/><path d="M1926,-72L1898,244L1927,619Z" fill="#6b7480" stroke="#6b7480"/><path d="M-91,129L-101,665L-56,375Z" fill="#c5e4fb" stroke="#c5e4fb"/><path d="M-91,129L-56,375L-17,177Z" fill="#f4f7ff" stroke="#f4f7ff"/><path d="M129,95L-17,177L105,176Z" fill="#faf7fb" stroke="#faf7fb"/><path d="M129,95L105,176L256,112Z" fill="#f6f3f9" stroke="#f6f3f9"/><path d="M256,112L105,176L196,251Z" fill="#f3f1f9" stroke="#f3f1f9"/><path d="M256,112L196,251L420,249Z" fill="#e8e9f5" stroke="#e8e9f5"/><path d="M256,112L420,249L433,100Z" fill="#e6e7f3" stroke="#e6e7f3"/><path d="M433,100L420,249L522,204Z" fill="#dbe1f0" stroke="#dbe1f0"/><path d="M433,100L522,204L479,50Z" fill="#dbe2f0" stroke="#dbe2f0"/><path d="M479,50L522,204L671,63Z" fill="#d2deed" stroke="#d2deed"/><path d="M671,63L522,204L660,174Z" fill="#c8d9eb" stroke="#c8d9eb"/><path d="M671,63L660,174L884,42Z" fill="#bad4e7" stroke="#bad4e7"/><path d="M884,42L660,174L853,265Z" fill="#aecee5" stroke="#aecee5"/><path d="M884,42L853,265L1016,168Z" fill="#9ac6e0" stroke="#9ac6e0"/><path d="M884,42L1016,168L941,45Z" fill="#98c6df" stroke="#98c6df"/><path d="M941,45L1016,168L1139,101Z" fill="#8dbedb" stroke="#8dbedb"/><path d="M1139,101L1016,168L1182,177Z" fill="#80b6d8" stroke="#80b6d8"/><path d="M1139,101L1182,177L1267,89Z" fill="#81b2d0" stroke="#81b2d0"/><path d="M1267,89L1182,177L1296,208Z" fill="#80aecb" stroke="#80aecb"/><path d="M1267,89L1296,208L1433,40Z" fill="#81a9c1" stroke="#81a9c1"/><path d="M1433,40L1296,208L1370,253Z" fill="#7fa4bc" stroke="#7fa4bc"/><path d="M1433,40L1370,253L1533,185Z" fill="#7f9db1" stroke="#7f9db1"/><path d="M1433,40L1533,185L1516,65Z" fill="#819aaa" stroke="#819aaa"/><path d="M1516,65L1533,185L1717,100Z" fill="#80919c" stroke="#80919c"/><path d="M1717,100L1533,185L1770,170Z" fill="#7e8890" stroke="#7e8890"/><path d="M1717,100L1770,170L1890,25Z" fill="#808080" stroke="#808080"/><path d="M1890,25L1770,170L1898,244Z" fill="#7e7e80" stroke="#7e7e80"/><path d="M-17,177L-56,375L105,176Z" fill="#eff2fd" stroke="#eff2fd"/><path d="M105,176L-56,375L77,422Z" fill="#d7e6fb" stroke="#d7e6fb"/><path d="M105,176L77,422L196,251Z" fill="#dfe8fa" stroke="#dfe8fa"/><path d="M196,251L77,422L199,350Z" fill="#ccdff7" stroke="#ccdff7"/><path d="M196,251L199,350L389,333Z" fill="#cedef6" stroke="#cedef6"/><path d="M196,251L389,333L420,249Z" fill="#d2ddf4" stroke="#d2ddf4"/><path d="M420,249L389,333L538,345Z" fill="#bdd3f0" stroke="#bdd3f0"/><path d="M420,249L538,345L522,204Z" fill="#c4d6ef" stroke="#c4d6ef"/><path d="M522,204L538,345L660,174Z" fill="#c1d5ed" stroke="#c1d5ed"/><path d="M660,174L538,345L686,369Z" fill="#abcbeb" stroke="#abcbeb"/><path d="M660,174L686,369L792,323Z" fill="#a2c7e8" stroke="#a2c7e8"/><path d="M660,174L792,323L853,265Z" fill="#a3c8e6" stroke="#a3c8e6"/><path d="M853,265L792,323L989,402Z" fill="#7bb7e0" stroke="#7bb7e0"/><path d="M853,265L989,402L1016,168Z" fill="#7fb8df" stroke="#7fb8df"/><path d="M1016,168L989,402L1180,337Z" fill="#69acd9" stroke="#69acd9"/><path d="M1016,168L1180,337L1182,177Z" fill="#77b0d6" stroke="#77b0d6"/><path d="M1182,177L1180,337L1296,208Z" fill="#73a9cd" stroke="#73a9cd"/><path d="M1296,208L1180,337L1307,400Z" fill="#5f9dc8" stroke="#5f9dc8"/><path d="M1296,208L1307,400L1373,333Z" fill="#5f98c1" stroke="#5f98c1"/><path d="M1296,208L1373,333L1370,253Z" fill="#6c9dbf" stroke="#6c9dbf"/><path d="M1370,253L1373,333L1533,185Z" fill="#6e96b4" stroke="#6e96b4"/><path d="M1533,185L1373,333L1614,359Z" fill="#658aa8" stroke="#658aa8"/><path d="M1533,185L1614,359L1770,170Z" fill="#718595" stroke="#718595"/><path d="M1770,170L1614,359L1665,378Z" fill="#60798e" stroke="#60798e"/><path d="M1770,170L1665,378L1863,324Z" fill="#647383" stroke="#647383"/><path d="M1770,170L1863,324L1898,244Z" fill="#6f7780" stroke="#6f7780"/><path d="M1898,244L1863,324L1927,619Z" fill="#44647b" stroke="#44647b"/><path d="M-56,375L-101,665L-20,483Z" fill="#9dd1f0" stroke="#9dd1f0"/><path d="M-56,375L-20,483L77,422Z" fill="#b7dbf6" stroke="#b7dbf6"/><path d="M77,422L-20,483L54,474Z" fill="#a9d5f2" stroke="#a9d5f2"/><path d="M77,422L54,474L223,478Z" fill="#a5d1f0" stroke="#a5d1f0"/><path d="M77,422L223,478L199,350Z" fill="#b3d5f3" stroke="#b3d5f3"/><path d="M199,350L223,478L389,333Z" fill="#b6d4f2" stroke="#b6d4f2"/><path d="M389,333L223,478L396,532Z" fill="#9ac7eb" stroke="#9ac7eb"/><path d="M389,333L396,532L484,496Z" fill="#90c1e7" stroke="#90c1e7"/><path d="M389,333L484,496L538,345Z" fill="#a2c8ec" stroke="#a2c8ec"/><path d="M538,345L484,496L686,369Z" fill="#92c0e8" stroke="#92c0e8"/><path d="M686,369L484,496L691,532Z" fill="#73b5e0" stroke="#73b5e0"/><path d="M686,369L691,532L794,467Z" fill="#69b1de" stroke="#69b1de"/><path d="M686,369L794,467L792,323Z" fill="#7eb9e3" stroke="#7eb9e3"/><path d="M792,323L794,467L934,474Z" fill="#63aedc" stroke="#63aedc"/><path d="M792,323L934,474L989,402Z" fill="#61addc" stroke="#61addc"/><path d="M989,402L934,474L1144,501Z" fill="#3a9ad2" stroke="#3a9ad2"/><path d="M989,402L1144,501L1180,337Z" fill="#409ad2" stroke="#409ad2"/><path d="M1180,337L1144,501L1253,520Z" fill="#308fc6" stroke="#308fc6"/><path d="M1180,337L1253,520L1307,400Z" fill="#3d91c4" stroke="#3d91c4"/><path d="M1307,400L1253,520L1381,543Z" fill="#2382b7" stroke="#2382b7"/><path d="M1307,400L1381,543L1373,333Z" fill="#3a87b7" stroke="#3a87b7"/><path d="M1373,333L1381,543L1614,359Z" fill="#3e80a9" stroke="#3e80a9"/><path d="M1614,359L1381,543L1606,525Z" fill="#266f98" stroke="#266f98"/><path d="M1614,359L1606,525L1665,378Z" fill="#3a6f90" stroke="#3a6f90"/><path d="M1665,378L1606,525L1680,558Z" fill="#216386" stroke="#216386"/><path d="M1665,378L1680,558L1831,465Z" fill="#295f7e" stroke="#295f7e"/><path d="M1665,378L1831,465L1863,324Z" fill="#46657c" stroke="#46657c"/><path d="M1863,324L1831,465L1927,619Z" fill="#285975" stroke="#285975"/><path d="M-20,483L-101,665L76,702Z" fill="#91bbe1" stroke="#91bbe1"/><path d="M-20,483L76,702L54,474Z" fill="#94c3e9" stroke="#94c3e9"/><path d="M54,474L76,702L203,697Z" fill="#8cb4dc" stroke="#8cb4dc"/><path d="M54,474L203,697L223,478Z" fill="#8fbfe6" stroke="#8fbfe6"/><path d="M223,478L203,697L396,532Z" fill="#84b4e1" stroke="#84b4e1"/><path d="M396,532L203,697L381,733Z" fill="#7da5cf" stroke="#7da5cf"/><path d="M396,532L381,733L489,711Z" fill="#749fcb" stroke="#749fcb"/><path d="M396,532L489,711L484,496Z" fill="#71a8da" stroke="#71a8da"/><path d="M484,496L489,711L637,702Z" fill="#679ccd" stroke="#679ccd"/><path d="M484,496L637,702L691,532Z" fill="#60a1d6" stroke="#60a1d6"/><path d="M691,532L637,702L859,717Z" fill="#4d8fc4" stroke="#4d8fc4"/><path d="M691,532L859,717L923,649Z" fill="#3e8cc3" stroke="#3e8cc3"/><path d="M691,532L923,649L794,467Z" fill="#479bd2" stroke="#479bd2"/><path d="M794,467L923,649L934,474Z" fill="#3c99d0" stroke="#3c99d0"/><path d="M934,474L923,649L1144,501Z" fill="#298dca" stroke="#298dca"/><path d="M1144,501L923,649L1133,660Z" fill="#1a7cc0" stroke="#1a7cc0"/><path d="M1144,501L1133,660L1253,520Z" fill="#187cbd" stroke="#187cbd"/><path d="M1253,520L1133,660L1309,729Z" fill="#146dab" stroke="#146dab"/><path d="M1253,520L1309,729L1381,543Z" fill="#146caa" stroke="#146caa"/><path d="M1381,543L1309,729L1412,706Z" fill="#136096" stroke="#136096"/><path d="M1381,543L1412,706L1603,658Z" fill="#135a8d" stroke="#135a8d"/><path d="M1381,543L1603,658L1606,525Z" fill="#145d8f" stroke="#145d8f"/><path d="M1606,525L1603,658L1680,558Z" fill="#135280" stroke="#135280"/><path d="M1680,558L1603,658L1680,697Z" fill="#124871" stroke="#124871"/><path d="M1680,558L1680,697L1927,619Z" fill="#124065" stroke="#124065"/><path d="M1680,558L1927,619L1831,465Z" fill="#184b6d" stroke="#184b6d"/><path d="M-101,665L-73,1006L-44,815Z" fill="#9196a5" stroke="#9196a5"/><path d="M-101,665L-44,815L20,787Z" fill="#91a4bc" stroke="#91a4bc"/><path d="M-101,665L20,787L76,702Z" fill="#91aac7" stroke="#91aac7"/><path d="M76,702L20,787L219,783Z" fill="#8c9db8" stroke="#8c9db8"/><path d="M76,702L219,783L203,697Z" fill="#89a1c0" stroke="#89a1c0"/><path d="M203,697L219,783L381,733Z" fill="#8199ba" stroke="#8199ba"/><path d="M381,733L219,783L425,881Z" fill="#7c88a3" stroke="#7c88a3"/><path d="M381,733L425,881L489,711Z" fill="#7388a8" stroke="#7388a8"/><path d="M489,711L425,881L553,857Z" fill="#6c7c99" stroke="#6c7c99"/><path d="M489,711L553,857L637,702Z" fill="#6485aa" stroke="#6485aa"/><path d="M637,702L553,857L734,852Z" fill="#597798" stroke="#597798"/><path d="M637,702L734,852L819,821Z" fill="#4d749a" stroke="#4d749a"/><path d="M637,702L819,821L859,717Z" fill="#467ba6" stroke="#467ba6"/><path d="M859,717L819,821L984,789Z" fill="#336d98" stroke="#336d98"/><path d="M859,717L984,789L923,649Z" fill="#2d77a9" stroke="#2d77a9"/><path d="M923,649L984,789L1133,660Z" fill="#2173ab" stroke="#2173ab"/><path d="M1133,660L984,789L1102,866Z" fill="#195e92" stroke="#195e92"/><path d="M1133,660L1102,866L1297,811Z" fill="#145687" stroke="#145687"/><path d="M1133,660L1297,811L1309,729Z" fill="#145c90" stroke="#145c90"/><path d="M1309,729L1297,811L1412,706Z" fill="#145180" stroke="#145180"/><path d="M1412,706L1297,811L1483,816Z" fill="#13466e" stroke="#13466e"/><path d="M1412,706L1483,816L1573,794Z" fill="#133e63" stroke="#133e63"/><path d="M1412,706L1573,794L1603,658Z" fill="#12466e" stroke="#12466e"/><path d="M1603,658L1573,794L1680,697Z" fill="#123f62" stroke="#123f62"/><path d="M1680,697L1573,794L1703,767Z" fill="#123352" stroke="#123352"/><path d="M1680,697L1703,767L1886,767Z" fill="#122c46" stroke="#122c46"/><path d="M1680,697L1886,767L1927,619Z" fill="#123451" stroke="#123451"/><path d="M1927,619L1886,767L1880,940Z" fill="#122337" stroke="#122337"/><path d="M-44,815L-73,1006L114,969Z" fill="#917e83" stroke="#917e83"/><path d="M-44,815L114,969L20,787Z" fill="#908c9a" stroke="#908c9a"/><path d="M20,787L114,969L219,783Z" fill="#8b8a9b" stroke="#8b8a9b"/><path d="M219,783L114,969L211,997Z" fill="#887983" stroke="#887983"/><path d="M219,783L211,997L357,999Z" fill="#82727d" stroke="#82727d"/><path d="M219,783L357,999L425,881Z" fill="#7c7687" stroke="#7c7687"/><path d="M425,881L357,999L484,917Z" fill="#746776" stroke="#746776"/><path d="M425,881L484,917L553,857Z" fill="#6c6e83" stroke="#6c6e83"/><path d="M553,857L484,917L722,974Z" fill="#616276" stroke="#616276"/><path d="M553,857L722,974L734,852Z" fill="#55627b" stroke="#55627b"/><path d="M734,852L722,974L880,955Z" fill="#45556c" stroke="#45556c"/><path d="M734,852L880,955L819,821Z" fill="#405d7b" stroke="#405d7b"/><path d="M819,821L880,955L918,938Z" fill="#36536f" stroke="#36536f"/><path d="M819,821L918,938L984,789Z" fill="#305c80" stroke="#305c80"/><path d="M984,789L918,938L1102,866Z" fill="#235277" stroke="#235277"/><path d="M1102,866L918,938L1066,1034Z" fill="#1f3f5c" stroke="#1f3f5c"/><path d="M1102,866L1066,1034L1301,919Z" fill="#143556" stroke="#143556"/><path d="M1102,866L1301,919L1297,811Z" fill="#144066" stroke="#144066"/><path d="M1297,811L1301,919L1483,816Z" fill="#133a5c" stroke="#133a5c"/><path d="M1483,816L1301,919L1452,988Z" fill="#132942" stroke="#132942"/><path d="M1483,816L1452,988L1578,1014Z" fill="#131a2b" stroke="#131a2b"/><path d="M1483,816L1578,1014L1573,794Z" fill="#122439" stroke="#122439"/><path d="M1573,794L1578,1014L1734,1014Z" fill="#120f19" stroke="#120f19"/><path d="M1573,794L1734,1014L1703,767Z" fill="#121c2d" stroke="#121c2d"/><path d="M1703,767L1734,1014L1880,940Z" fill="#12080f" stroke="#12080f"/><path d="M1703,767L1880,940L1886,767Z" fill="#121827" stroke="#121827"/><path d="M-73,1006L1066,1034L357,999Z" fill="#716471" stroke="#716471"/><path d="M-73,1006L357,999L211,997Z" fill="#89757a" stroke="#89757a"/><path d="M-73,1006L211,997L114,969Z" fill="#8d787c" stroke="#8d787c"/><path d="M357,999L1066,1034L722,974Z" fill="#4f5669" stroke="#4f5669"/><path d="M357,999L722,974L484,917Z" fill="#69616f" stroke="#69616f"/><path d="M722,974L1066,1034L880,955Z" fill="#334b62" stroke="#334b62"/><path d="M880,955L1066,1034L918,938Z" fill="#29465f" stroke="#29465f"/><path d="M1066,1034L1734,1014L1578,1014Z" fill="#131e2f" stroke="#131e2f"/><path d="M1066,1034L1578,1014L1452,988Z" fill="#13273d" stroke="#13273d"/><path d="M1066,1034L1452,988L1301,919Z" fill="#142f49" stroke="#142f49"/></g></svg>